<mxfile host="app.diagrams.net" modified="2023-09-13T13:31:00.771Z" agent="Mozilla/5.0 (Windows NT 10.0; Win64; x64) AppleWebKit/537.36 (KHTML, like Gecko) Chrome/115.0.0.0 Safari/537.36 OPR/101.0.0.0" etag="lAvQP5b_4BgxR0gvRmNe" version="21.7.5" type="device">
  <diagram id="yPxyJZ8AM_hMuL3Unpa9" name="complex gitflow">
    <mxGraphModel dx="1073" dy="586" grid="1" gridSize="10" guides="1" tooltips="1" connect="1" arrows="1" fold="1" page="1" pageScale="1" pageWidth="1100" pageHeight="850" math="0" shadow="0">
      <root>
        <mxCell id="0" />
        <mxCell id="1" parent="0" />
        <mxCell id="lU1ef-nFgCerGgnsKpB3-23" style="edgeStyle=orthogonalEdgeStyle;rounded=0;orthogonalLoop=1;jettySize=auto;html=1;entryX=1;entryY=0.5;entryDx=0;entryDy=0;exitX=0.5;exitY=1;exitDx=0;exitDy=0;" edge="1" parent="1" source="ROqmm4iPbOlm8Z_BbQSg-2" target="ROqmm4iPbOlm8Z_BbQSg-7">
          <mxGeometry relative="1" as="geometry" />
        </mxCell>
        <mxCell id="ROqmm4iPbOlm8Z_BbQSg-2" value="Start Game" style="rounded=1;whiteSpace=wrap;html=1;arcSize=50;fillColor=#d5e8d4;strokeColor=#82b366;" parent="1" vertex="1">
          <mxGeometry x="572.5" y="20" width="120" height="60" as="geometry" />
        </mxCell>
        <mxCell id="lU1ef-nFgCerGgnsKpB3-24" style="edgeStyle=orthogonalEdgeStyle;rounded=0;orthogonalLoop=1;jettySize=auto;html=1;entryX=1;entryY=0.5;entryDx=0;entryDy=0;" edge="1" parent="1" source="ROqmm4iPbOlm8Z_BbQSg-7" target="ROqmm4iPbOlm8Z_BbQSg-14">
          <mxGeometry relative="1" as="geometry" />
        </mxCell>
        <mxCell id="ROqmm4iPbOlm8Z_BbQSg-7" value="User Choice" style="rhombus;whiteSpace=wrap;html=1;" parent="1" vertex="1">
          <mxGeometry x="450" y="80" width="105" height="100" as="geometry" />
        </mxCell>
        <mxCell id="lU1ef-nFgCerGgnsKpB3-11" style="edgeStyle=orthogonalEdgeStyle;rounded=0;orthogonalLoop=1;jettySize=auto;html=1;entryX=0.5;entryY=0;entryDx=0;entryDy=0;" edge="1" parent="1" source="ROqmm4iPbOlm8Z_BbQSg-11" target="lU1ef-nFgCerGgnsKpB3-8">
          <mxGeometry relative="1" as="geometry" />
        </mxCell>
        <mxCell id="ROqmm4iPbOlm8Z_BbQSg-11" value="User Choice: Rock" style="rounded=0;whiteSpace=wrap;html=1;" parent="1" vertex="1">
          <mxGeometry x="10" y="380" width="100" height="60" as="geometry" />
        </mxCell>
        <mxCell id="lU1ef-nFgCerGgnsKpB3-13" style="edgeStyle=orthogonalEdgeStyle;rounded=0;orthogonalLoop=1;jettySize=auto;html=1;entryX=0.5;entryY=0;entryDx=0;entryDy=0;" edge="1" parent="1" source="ROqmm4iPbOlm8Z_BbQSg-12" target="lU1ef-nFgCerGgnsKpB3-9">
          <mxGeometry relative="1" as="geometry">
            <mxPoint x="180" y="470" as="targetPoint" />
          </mxGeometry>
        </mxCell>
        <mxCell id="ROqmm4iPbOlm8Z_BbQSg-12" value="User Choice: Paper" style="rounded=0;whiteSpace=wrap;html=1;" parent="1" vertex="1">
          <mxGeometry x="120" y="380" width="100" height="60" as="geometry" />
        </mxCell>
        <mxCell id="lU1ef-nFgCerGgnsKpB3-14" style="edgeStyle=orthogonalEdgeStyle;rounded=0;orthogonalLoop=1;jettySize=auto;html=1;entryX=0.5;entryY=0;entryDx=0;entryDy=0;" edge="1" parent="1" source="ROqmm4iPbOlm8Z_BbQSg-13" target="lU1ef-nFgCerGgnsKpB3-10">
          <mxGeometry relative="1" as="geometry" />
        </mxCell>
        <mxCell id="ROqmm4iPbOlm8Z_BbQSg-13" value="User Choice: Scissors" style="rounded=0;whiteSpace=wrap;html=1;" parent="1" vertex="1">
          <mxGeometry x="230" y="380" width="100" height="60" as="geometry" />
        </mxCell>
        <mxCell id="lU1ef-nFgCerGgnsKpB3-25" style="edgeStyle=orthogonalEdgeStyle;rounded=0;orthogonalLoop=1;jettySize=auto;html=1;entryX=0.5;entryY=0;entryDx=0;entryDy=0;" edge="1" parent="1" source="ROqmm4iPbOlm8Z_BbQSg-14" target="ROqmm4iPbOlm8Z_BbQSg-11">
          <mxGeometry relative="1" as="geometry">
            <Array as="points">
              <mxPoint x="340" y="230" />
              <mxPoint x="60" y="230" />
            </Array>
          </mxGeometry>
        </mxCell>
        <mxCell id="ROqmm4iPbOlm8Z_BbQSg-14" value="Randomly Generate Computer Choice" style="rounded=0;whiteSpace=wrap;html=1;" parent="1" vertex="1">
          <mxGeometry x="280" y="105" width="120" height="50" as="geometry" />
        </mxCell>
        <mxCell id="lU1ef-nFgCerGgnsKpB3-15" style="edgeStyle=orthogonalEdgeStyle;rounded=0;orthogonalLoop=1;jettySize=auto;html=1;" edge="1" parent="1" source="lU1ef-nFgCerGgnsKpB3-8">
          <mxGeometry relative="1" as="geometry">
            <mxPoint x="60" y="600" as="targetPoint" />
          </mxGeometry>
        </mxCell>
        <mxCell id="lU1ef-nFgCerGgnsKpB3-8" value="Computer:&lt;br&gt;Paper" style="rounded=0;whiteSpace=wrap;html=1;" vertex="1" parent="1">
          <mxGeometry x="10" y="490" width="100" height="60" as="geometry" />
        </mxCell>
        <mxCell id="lU1ef-nFgCerGgnsKpB3-18" style="edgeStyle=orthogonalEdgeStyle;rounded=0;orthogonalLoop=1;jettySize=auto;html=1;entryX=0.5;entryY=0;entryDx=0;entryDy=0;" edge="1" parent="1" source="lU1ef-nFgCerGgnsKpB3-9" target="lU1ef-nFgCerGgnsKpB3-17">
          <mxGeometry relative="1" as="geometry" />
        </mxCell>
        <mxCell id="lU1ef-nFgCerGgnsKpB3-9" value="Computer:&lt;br&gt;Scissors" style="rounded=0;whiteSpace=wrap;html=1;" vertex="1" parent="1">
          <mxGeometry x="120" y="490" width="100" height="60" as="geometry" />
        </mxCell>
        <mxCell id="lU1ef-nFgCerGgnsKpB3-20" style="edgeStyle=orthogonalEdgeStyle;rounded=0;orthogonalLoop=1;jettySize=auto;html=1;entryX=0.5;entryY=0;entryDx=0;entryDy=0;" edge="1" parent="1" source="lU1ef-nFgCerGgnsKpB3-10" target="lU1ef-nFgCerGgnsKpB3-19">
          <mxGeometry relative="1" as="geometry" />
        </mxCell>
        <mxCell id="lU1ef-nFgCerGgnsKpB3-10" value="Computer:&lt;br&gt;Rock" style="rounded=0;whiteSpace=wrap;html=1;" vertex="1" parent="1">
          <mxGeometry x="230" y="490" width="100" height="60" as="geometry" />
        </mxCell>
        <mxCell id="lU1ef-nFgCerGgnsKpB3-16" value="Computer Win" style="rounded=1;whiteSpace=wrap;html=1;arcSize=50;" vertex="1" parent="1">
          <mxGeometry x="5" y="600" width="110" height="50" as="geometry" />
        </mxCell>
        <mxCell id="lU1ef-nFgCerGgnsKpB3-17" value="Computer Wins" style="rounded=1;whiteSpace=wrap;html=1;arcSize=50;" vertex="1" parent="1">
          <mxGeometry x="115" y="600" width="110" height="50" as="geometry" />
        </mxCell>
        <mxCell id="lU1ef-nFgCerGgnsKpB3-19" value="Computer Wins" style="rounded=1;whiteSpace=wrap;html=1;arcSize=50;" vertex="1" parent="1">
          <mxGeometry x="225" y="600" width="110" height="50" as="geometry" />
        </mxCell>
        <mxCell id="lU1ef-nFgCerGgnsKpB3-26" value="" style="endArrow=classic;html=1;rounded=0;entryX=0.5;entryY=0;entryDx=0;entryDy=0;" edge="1" parent="1" target="ROqmm4iPbOlm8Z_BbQSg-12">
          <mxGeometry width="50" height="50" relative="1" as="geometry">
            <mxPoint x="170" y="230" as="sourcePoint" />
            <mxPoint x="230" y="280" as="targetPoint" />
          </mxGeometry>
        </mxCell>
        <mxCell id="lU1ef-nFgCerGgnsKpB3-27" value="" style="endArrow=classic;html=1;rounded=0;entryX=0.5;entryY=0;entryDx=0;entryDy=0;" edge="1" parent="1" target="ROqmm4iPbOlm8Z_BbQSg-13">
          <mxGeometry width="50" height="50" relative="1" as="geometry">
            <mxPoint x="280" y="230" as="sourcePoint" />
            <mxPoint x="360" y="280" as="targetPoint" />
          </mxGeometry>
        </mxCell>
        <mxCell id="lU1ef-nFgCerGgnsKpB3-28" value="" style="endArrow=classic;html=1;rounded=0;entryX=0.5;entryY=0;entryDx=0;entryDy=0;" edge="1" parent="1" target="lU1ef-nFgCerGgnsKpB3-29">
          <mxGeometry width="50" height="50" relative="1" as="geometry">
            <mxPoint x="320" y="230" as="sourcePoint" />
            <mxPoint x="560" y="360" as="targetPoint" />
            <Array as="points">
              <mxPoint x="400" y="230" />
            </Array>
          </mxGeometry>
        </mxCell>
        <mxCell id="lU1ef-nFgCerGgnsKpB3-41" style="edgeStyle=orthogonalEdgeStyle;rounded=0;orthogonalLoop=1;jettySize=auto;html=1;entryX=0.5;entryY=0;entryDx=0;entryDy=0;" edge="1" parent="1" source="lU1ef-nFgCerGgnsKpB3-29" target="lU1ef-nFgCerGgnsKpB3-32">
          <mxGeometry relative="1" as="geometry" />
        </mxCell>
        <mxCell id="lU1ef-nFgCerGgnsKpB3-29" value="User Choice: Rock" style="rounded=0;whiteSpace=wrap;html=1;" vertex="1" parent="1">
          <mxGeometry x="350" y="380" width="100" height="60" as="geometry" />
        </mxCell>
        <mxCell id="lU1ef-nFgCerGgnsKpB3-42" style="edgeStyle=orthogonalEdgeStyle;rounded=0;orthogonalLoop=1;jettySize=auto;html=1;entryX=0.5;entryY=0;entryDx=0;entryDy=0;" edge="1" parent="1" source="lU1ef-nFgCerGgnsKpB3-30" target="lU1ef-nFgCerGgnsKpB3-33">
          <mxGeometry relative="1" as="geometry" />
        </mxCell>
        <mxCell id="lU1ef-nFgCerGgnsKpB3-30" value="User Choice:&lt;br&gt;Paper" style="rounded=0;whiteSpace=wrap;html=1;" vertex="1" parent="1">
          <mxGeometry x="460" y="380" width="100" height="60" as="geometry" />
        </mxCell>
        <mxCell id="lU1ef-nFgCerGgnsKpB3-43" style="edgeStyle=orthogonalEdgeStyle;rounded=0;orthogonalLoop=1;jettySize=auto;html=1;entryX=0.5;entryY=0;entryDx=0;entryDy=0;" edge="1" parent="1" source="lU1ef-nFgCerGgnsKpB3-31" target="lU1ef-nFgCerGgnsKpB3-34">
          <mxGeometry relative="1" as="geometry" />
        </mxCell>
        <mxCell id="lU1ef-nFgCerGgnsKpB3-31" value="User Choice:&lt;br&gt;Scissors" style="rounded=0;whiteSpace=wrap;html=1;" vertex="1" parent="1">
          <mxGeometry x="570" y="380" width="100" height="60" as="geometry" />
        </mxCell>
        <mxCell id="lU1ef-nFgCerGgnsKpB3-37" style="edgeStyle=orthogonalEdgeStyle;rounded=0;orthogonalLoop=1;jettySize=auto;html=1;entryX=0.5;entryY=0;entryDx=0;entryDy=0;" edge="1" parent="1" source="lU1ef-nFgCerGgnsKpB3-32" target="lU1ef-nFgCerGgnsKpB3-35">
          <mxGeometry relative="1" as="geometry" />
        </mxCell>
        <mxCell id="lU1ef-nFgCerGgnsKpB3-32" value="Computer:&lt;br&gt;Scissors" style="rounded=0;whiteSpace=wrap;html=1;" vertex="1" parent="1">
          <mxGeometry x="350" y="490" width="100" height="60" as="geometry" />
        </mxCell>
        <mxCell id="lU1ef-nFgCerGgnsKpB3-38" style="edgeStyle=orthogonalEdgeStyle;rounded=0;orthogonalLoop=1;jettySize=auto;html=1;entryX=0.5;entryY=0;entryDx=0;entryDy=0;" edge="1" parent="1" source="lU1ef-nFgCerGgnsKpB3-33" target="lU1ef-nFgCerGgnsKpB3-36">
          <mxGeometry relative="1" as="geometry" />
        </mxCell>
        <mxCell id="lU1ef-nFgCerGgnsKpB3-33" value="Computer:&lt;br&gt;Rock" style="rounded=0;whiteSpace=wrap;html=1;" vertex="1" parent="1">
          <mxGeometry x="460" y="490" width="100" height="60" as="geometry" />
        </mxCell>
        <mxCell id="lU1ef-nFgCerGgnsKpB3-40" style="edgeStyle=orthogonalEdgeStyle;rounded=0;orthogonalLoop=1;jettySize=auto;html=1;entryX=0.5;entryY=0;entryDx=0;entryDy=0;" edge="1" parent="1" source="lU1ef-nFgCerGgnsKpB3-34" target="lU1ef-nFgCerGgnsKpB3-39">
          <mxGeometry relative="1" as="geometry" />
        </mxCell>
        <mxCell id="lU1ef-nFgCerGgnsKpB3-34" value="Computer:&lt;br&gt;Paper" style="rounded=0;whiteSpace=wrap;html=1;" vertex="1" parent="1">
          <mxGeometry x="570" y="490" width="100" height="60" as="geometry" />
        </mxCell>
        <mxCell id="lU1ef-nFgCerGgnsKpB3-35" value="User Wins" style="rounded=1;whiteSpace=wrap;html=1;arcSize=50;" vertex="1" parent="1">
          <mxGeometry x="345" y="600" width="110" height="50" as="geometry" />
        </mxCell>
        <mxCell id="lU1ef-nFgCerGgnsKpB3-36" value="User Wins" style="rounded=1;whiteSpace=wrap;html=1;arcSize=50;" vertex="1" parent="1">
          <mxGeometry x="455" y="600" width="110" height="50" as="geometry" />
        </mxCell>
        <mxCell id="lU1ef-nFgCerGgnsKpB3-39" value="User Wins" style="rounded=1;whiteSpace=wrap;html=1;arcSize=50;" vertex="1" parent="1">
          <mxGeometry x="565" y="600" width="110" height="50" as="geometry" />
        </mxCell>
        <mxCell id="lU1ef-nFgCerGgnsKpB3-44" value="" style="endArrow=classic;html=1;rounded=0;entryX=0.5;entryY=0;entryDx=0;entryDy=0;" edge="1" parent="1" target="lU1ef-nFgCerGgnsKpB3-31">
          <mxGeometry width="50" height="50" relative="1" as="geometry">
            <mxPoint x="400" y="230" as="sourcePoint" />
            <mxPoint x="510" y="230" as="targetPoint" />
            <Array as="points">
              <mxPoint x="620" y="230" />
            </Array>
          </mxGeometry>
        </mxCell>
        <mxCell id="lU1ef-nFgCerGgnsKpB3-45" value="" style="endArrow=classic;html=1;rounded=0;entryX=0.5;entryY=0;entryDx=0;entryDy=0;" edge="1" parent="1" target="lU1ef-nFgCerGgnsKpB3-30">
          <mxGeometry width="50" height="50" relative="1" as="geometry">
            <mxPoint x="510" y="230" as="sourcePoint" />
            <mxPoint x="580" y="260" as="targetPoint" />
          </mxGeometry>
        </mxCell>
      </root>
    </mxGraphModel>
  </diagram>
</mxfile>
